<svg width="512" height="512" viewBox="0 0 512 512" fill="none" xmlns="http://www.w3.org/2000/svg">
<path d="M49.4339 138.232C51.9614 135.296 54.7559 131.384 52.95 127.913C63.0518 122.044 71.9812 114.304 79.2894 105.231C75.3188 108.344 70.9894 110.833 66.3886 112.79C100.936 79.168 152.892 63.8724 200.611 73.2989C162.185 71.8759 123.037 81.9276 91.29 103.273C59.4499 124.532 35.2751 157.176 25.9871 193.998C40.0595 153.705 69.735 118.926 107.619 98.4689C104.641 101.492 101.667 104.605 98.5973 107.632C113.029 101.763 126.108 92.9576 140.452 86.8168C182.573 68.6712 233.266 75.5185 272.501 99.1799C311.736 122.841 339.968 161.621 356.385 203.962C363.6 222.461 368.652 243.009 362.249 261.776C360.806 237.316 352.689 213.745 342.133 191.598C324.636 154.685 299.557 120.085 264.293 98.9152C229.024 77.8371 182.39 72.2307 146.307 92.0672C164.796 90.1096 183.469 89.0443 201.779 91.623C236.235 96.4268 268.075 114.215 292.249 138.855C316.331 163.581 333.018 194.803 342.849 227.623C352.409 259.732 355.566 295.131 343.3 326.442C379.111 269.339 373.155 189.819 329.411 138.505C311.102 117.069 287.377 100.614 261.76 88.6945C232.176 74.9991 199.702 67.0811 167.048 67.9697C134.395 68.8581 101.745 78.9098 75.6773 98.3022C97.3242 79.4451 125.557 68.7717 154.239 65.8352C183.014 62.9891 212.147 67.6159 239.478 76.6847C296.307 95.7189 348.075 137.703 364.771 194.539C369.009 209.127 370.906 224.246 372.617 239.369C374.06 252.444 375.232 265.518 374.961 278.683C373.697 343.703 331.575 407.205 270.15 430.955C252.741 437.626 234.339 441.274 215.85 443.852C186.266 447.944 155.598 449.191 127.094 440.471C112.392 435.935 98.6819 428.91 85.9608 420.282C33.2831 384.702 0 322.709 0 259.738C0 248.53 0.99264 237.413 2.52748 226.383C3.87889 216.245 5.68486 206.193 8.66272 196.408C13.1715 182.001 20.2072 168.391 29.5003 156.383C31.1227 155.404 32.7493 154.338 34.2801 153.269C12.9047 197.831 0.18359 250.488 19.7577 295.94C12.7215 266.319 12.2711 235.28 18.494 205.572C20.4792 204.861 22.4645 204.059 24.3581 203.261C24.4498 201.303 24.5375 199.436 24.6292 197.478C23.1861 199.078 21.8347 200.682 20.3916 202.192C23.7283 178.621 34.0139 156.293 49.4374 138.237M63.9598 137.081C69.553 133.347 75.1461 129.608 80.7356 125.873C77.2195 132.898 70.7215 138.413 63.1475 140.906C27.9702 176.75 17.1473 230.208 21.2927 279.834C22.9152 298.6 26.7941 318.079 39.0605 332.49C30.4935 297.802 30.039 261.157 37.8885 226.289C39.4233 226.199 39.9614 228.157 39.9614 229.67C40.5913 253.064 36.533 276.454 38.2472 299.847C39.9614 323.15 48.7997 347.791 68.6443 360.507C84.1597 370.469 99.5832 380.43 115.008 390.391C78.9263 379.007 47.4485 354.28 27.9662 322.258C33.1965 336.221 40.5037 349.477 49.5253 361.396C48.3533 358.192 47.269 354.902 46.0969 351.611C55.2061 360.059 64.4065 368.334 73.516 376.696C80.1894 382.832 90.654 389.059 97.5111 383.19C98.5954 385.415 96.6101 388.171 94.1744 388.792C91.7387 389.503 89.1235 388.792 86.6878 388.08C97.6025 395.817 108.968 402.936 120.692 409.426C118.978 409.693 118.436 412.182 119.52 413.605C120.605 415.028 122.407 415.385 124.121 415.83C167.147 424.993 212.969 421.612 254.098 405.955C218.741 414.139 181.037 416.007 146.757 404.174C117.803 394.213 92.4563 374.553 75.8601 349.206C70.5382 341.021 66.1171 332.397 62.0593 323.591C48.9799 294.596 40.6839 262.931 43.0281 231.266C45.3723 199.601 59.4446 168.027 84.6991 148.458C87.3143 146.414 90.5633 144.456 93.8083 145.254C68.912 163.043 54.1182 192.487 50.2432 222.548C46.3643 252.699 52.6789 283.298 63.7736 311.583C71.7107 331.596 82.2629 350.984 96.7863 366.995C103.009 373.843 110.045 380.069 118.074 384.783C132.776 393.498 150.185 396.793 167.232 398.927C190.413 401.864 213.774 403.106 237.135 402.575C207.639 409.423 176.791 404.533 146.936 399.639C197.629 418.405 257.074 406.931 300.641 375.356C309.3 369.043 317.507 362.014 324.093 353.567C334.195 340.583 340.238 324.748 343.304 308.65C351.241 266.666 339.875 222.819 319.221 185.191C304.877 159.042 285.846 134.85 260.771 118.394C237.319 103.094 209.449 95.0001 181.396 93.4906C138.286 91.0022 92.6439 105.056 63.9614 137.075M148.659 425.969C168.053 430.773 187.627 434.24 207.468 436.556C183.114 442.071 158.039 433.619 134.495 425.348C120.606 420.544 106.534 415.564 93.6328 408.448C62.4224 391.372 38.9702 362.109 25.352 329.555C23.0079 323.773 20.8432 317.994 19.0373 312.121C18.8579 311.41 18.3158 313.1 19.0373 312.742C19.7589 312.475 19.6672 311.41 19.3084 310.698C11.1919 291.396 6.22906 270.672 4.69824 249.861C3.16343 281.349 11.1005 313.014 25.5358 341.208C41.2308 371.894 64.7708 398.845 94.3596 417.078C123.855 435.31 159.396 444.563 194.03 441.27C242.738 436.556 285.493 408.54 324.732 379.808C307.414 402.399 281.167 416.362 255.638 429.528C299.745 417.342 335.105 382.921 356.394 342.894C345.841 360.683 329.333 374.65 311.382 385.141C293.343 395.638 273.59 402.93 253.833 409.958C245.174 413.071 236.423 416.094 227.493 418.587C201.971 425.792 175.09 428.285 148.664 425.969M329.066 365.843C333.575 361.665 337.996 357.396 341.604 352.592C347.285 344.855 351.076 335.869 354.683 326.977C359.555 314.881 364.514 302.695 365.778 289.711C363.433 291.755 362.62 294.782 361.719 297.714C349.724 338.719 320.048 374.472 281.531 394.042C299.662 390.036 315.269 378.384 329.066 365.844M108.617 409.428C110.511 409.872 112.855 410.674 112.946 412.541C113.668 411.295 115.833 411.295 116.646 412.541C117.009 412.451 116.738 411.83 116.283 411.653C113.576 410.23 110.869 408.807 108.254 407.384C97.3395 401.601 87.3289 394.4 78.3991 386.038C77.3148 388.349 78.128 391.286 80.205 392.709C84.1755 395.555 88.1421 398.401 92.1127 401.247C96.8886 405.159 102.573 408.005 108.617 409.428M369.112 274.939C368.749 281.519 368.391 288.19 367.94 294.775C367.848 295.663 367.848 296.556 367.848 297.444C367.757 299.044 367.669 300.648 367.486 302.157C367.394 304.115 367.306 305.892 367.306 307.849C371.093 292.731 372.449 276.896 371.277 261.419C370.826 261.242 370.376 260.975 370.013 260.708C369.746 265.421 369.383 270.134 369.112 274.939M18.5026 177.456C17.8727 178.612 17.3306 179.768 16.7884 180.923C17.4183 181.725 18.5943 180.746 18.8613 179.768C19.1324 178.879 19.4035 177.633 20.3961 177.543C19.9457 177.098 19.4952 176.654 19.0447 176.21C18.8653 176.568 18.682 177.098 18.8653 177.456M84.0763 103.631C84.9773 102.919 85.8822 102.208 86.7831 101.406C85.2483 100.785 83.2671 101.583 82.6332 103.187C83.0877 103.364 83.5381 103.541 84.0763 103.631M86.8749 99.4484C88.8602 99.8926 91.1125 99.358 92.7391 98.0253C90.662 97.9388 88.5891 98.383 86.8749 99.4484ZM15.0742 189.729C14.9825 189.285 14.8948 188.841 14.8948 188.483C13.1806 189.104 12.3673 191.42 13.36 192.929C13.7228 191.774 14.2649 190.708 15.0742 189.729M4.88465 235.09C4.43417 235.711 4.79296 236.78 5.60621 236.871C6.05669 235.448 5.96899 233.934 5.51452 232.425C4.61357 232.869 4.34253 234.115 4.88465 234.917" fill="#D62828"/>
<path d="M186.434 138.232C188.961 135.296 191.756 131.384 189.95 127.913C200.052 122.044 208.981 114.304 216.289 105.231C212.319 108.344 207.989 110.833 203.389 112.79C237.936 79.168 289.892 63.8724 337.611 73.2989C299.185 71.8759 260.037 81.9276 228.29 103.273C196.45 124.532 172.275 157.176 162.987 193.998C177.059 153.705 206.735 118.926 244.619 98.4689C241.641 101.492 238.667 104.605 235.597 107.632C250.029 101.763 263.108 92.9576 277.452 86.8168C319.573 68.6712 370.266 75.5185 409.501 99.1799C448.736 122.841 476.968 161.621 493.385 203.962C500.6 222.461 505.652 243.009 499.249 261.776C497.806 237.316 489.689 213.745 479.133 191.598C461.636 154.685 436.557 120.085 401.293 98.9152C366.024 77.8371 319.39 72.2307 283.307 92.0672C301.796 90.1096 320.469 89.0443 338.779 91.623C373.235 96.4268 405.075 114.215 429.249 138.855C453.331 163.581 470.018 194.803 479.849 227.623C489.409 259.732 492.566 295.131 480.3 326.442C516.111 269.339 510.155 189.819 466.411 138.505C448.102 117.069 424.377 100.614 398.76 88.6945C369.176 74.9991 336.702 67.0811 304.048 67.9697C271.395 68.8581 238.745 78.9098 212.677 98.3022C234.324 79.4451 262.557 68.7717 291.239 65.8352C320.014 62.9891 349.147 67.6159 376.478 76.6847C433.307 95.7189 485.075 137.703 501.771 194.539C506.009 209.127 507.906 224.246 509.617 239.369C511.06 252.444 512.232 265.518 511.961 278.683C510.697 343.703 468.575 407.205 407.15 430.955C389.741 437.626 371.339 441.274 352.85 443.852C323.266 447.944 292.598 449.191 264.094 440.471C249.392 435.935 235.682 428.91 222.961 420.282C170.283 384.702 137 322.709 137 259.738C137 248.53 137.993 237.413 139.527 226.383C140.879 216.245 142.685 206.193 145.663 196.408C150.172 182.001 157.207 168.391 166.5 156.383C168.123 155.404 169.749 154.338 171.28 153.269C149.905 197.831 137.184 250.488 156.758 295.94C149.722 266.319 149.271 235.28 155.494 205.572C157.479 204.861 159.465 204.059 161.358 203.261C161.45 201.303 161.538 199.436 161.629 197.478C160.186 199.078 158.835 200.682 157.392 202.192C160.728 178.621 171.014 156.293 186.437 138.237M200.96 137.081C206.553 133.347 212.146 129.608 217.736 125.873C214.22 132.898 207.721 138.413 200.147 140.906C164.97 176.75 154.147 230.208 158.293 279.834C159.915 298.6 163.794 318.079 176.06 332.49C167.493 297.802 167.039 261.157 174.888 226.289C176.423 226.199 176.961 228.157 176.961 229.67C177.591 253.064 173.533 276.454 175.247 299.847C176.961 323.15 185.8 347.791 205.644 360.507C221.16 370.469 236.583 380.43 252.008 390.391C215.926 379.007 184.448 354.28 164.966 322.258C170.197 336.221 177.504 349.477 186.525 361.396C185.353 358.192 184.269 354.902 183.097 351.611C192.206 360.059 201.407 368.334 210.516 376.696C217.189 382.832 227.654 389.059 234.511 383.19C235.595 385.415 233.61 388.171 231.174 388.792C228.739 389.503 226.124 388.792 223.688 388.08C234.603 395.817 245.968 402.936 257.692 409.426C255.978 409.693 255.436 412.182 256.52 413.605C257.605 415.028 259.407 415.385 261.121 415.83C304.147 424.993 349.969 421.612 391.098 405.955C355.741 414.139 318.037 416.007 283.757 404.174C254.803 394.213 229.456 374.553 212.86 349.206C207.538 341.021 203.117 332.397 199.059 323.591C185.98 294.596 177.684 262.931 180.028 231.266C182.372 199.601 196.445 168.027 221.699 148.458C224.314 146.414 227.563 144.456 230.808 145.254C205.912 163.043 191.118 192.487 187.243 222.548C183.364 252.699 189.679 283.298 200.774 311.583C208.711 331.596 219.263 350.984 233.786 366.995C240.009 373.843 247.045 380.069 255.074 384.783C269.776 393.498 287.185 396.793 304.232 398.927C327.413 401.864 350.774 403.106 374.135 402.575C344.639 409.423 313.791 404.533 283.936 399.639C334.629 418.405 394.074 406.931 437.641 375.356C446.3 369.043 454.507 362.014 461.093 353.567C471.195 340.583 477.238 324.748 480.304 308.65C488.241 266.666 476.875 222.819 456.221 185.191C441.877 159.042 422.846 134.85 397.771 118.394C374.319 103.094 346.449 95.0001 318.396 93.4906C275.286 91.0022 229.644 105.056 200.961 137.075M285.659 425.969C305.053 430.773 324.627 434.24 344.468 436.556C320.114 442.071 295.039 433.619 271.495 425.348C257.606 420.544 243.534 415.564 230.633 408.448C199.422 391.372 175.97 362.109 162.352 329.555C160.008 323.773 157.843 317.994 156.037 312.121C155.858 311.41 155.316 313.1 156.037 312.742C156.759 312.475 156.667 311.41 156.308 310.698C148.192 291.396 143.229 270.672 141.698 249.861C140.163 281.349 148.101 313.014 162.536 341.208C178.231 371.894 201.771 398.845 231.36 417.078C260.855 435.31 296.396 444.563 331.03 441.27C379.738 436.556 422.493 408.54 461.732 379.808C444.414 402.399 418.167 416.362 392.638 429.528C436.745 417.342 472.105 382.921 493.394 342.894C482.841 360.683 466.333 374.65 448.382 385.141C430.343 395.638 410.59 402.93 390.833 409.958C382.174 413.071 373.423 416.094 364.493 418.587C338.971 425.792 312.09 428.285 285.664 425.969M466.066 365.843C470.575 361.665 474.996 357.396 478.604 352.592C484.285 344.855 488.076 335.869 491.683 326.977C496.555 314.881 501.514 302.695 502.778 289.711C500.433 291.755 499.62 294.782 498.719 297.714C486.724 338.719 457.048 374.472 418.531 394.042C436.662 390.036 452.269 378.384 466.066 365.844M245.617 409.428C247.511 409.872 249.855 410.674 249.946 412.541C250.668 411.295 252.833 411.295 253.646 412.541C254.009 412.451 253.738 411.83 253.283 411.653C250.576 410.23 247.869 408.807 245.254 407.384C234.339 401.601 224.329 394.4 215.399 386.038C214.315 388.349 215.128 391.286 217.205 392.709C221.176 395.555 225.142 398.401 229.113 401.247C233.889 405.159 239.573 408.005 245.617 409.428M506.112 274.939C505.749 281.519 505.391 288.19 504.94 294.775C504.848 295.663 504.848 296.556 504.848 297.444C504.757 299.044 504.669 300.648 504.486 302.157C504.394 304.115 504.306 305.892 504.306 307.849C508.093 292.731 509.449 276.896 508.277 261.419C507.826 261.242 507.376 260.975 507.013 260.708C506.746 265.421 506.383 270.134 506.112 274.939M155.503 177.456C154.873 178.612 154.331 179.768 153.788 180.923C154.418 181.725 155.594 180.746 155.861 179.768C156.132 178.879 156.403 177.633 157.396 177.543C156.946 177.098 156.495 176.654 156.045 176.21C155.865 176.568 155.682 177.098 155.865 177.456M221.076 103.631C221.977 102.919 222.882 102.208 223.783 101.406C222.248 100.785 220.267 101.583 219.633 103.187C220.088 103.364 220.538 103.541 221.076 103.631M223.875 99.4484C225.86 99.8926 228.113 99.358 229.739 98.0253C227.662 97.9388 225.589 98.383 223.875 99.4484ZM152.074 189.729C151.983 189.285 151.895 188.841 151.895 188.483C150.181 189.104 149.367 191.42 150.36 192.929C150.723 191.774 151.265 190.708 152.074 189.729M141.885 235.09C141.434 235.711 141.793 236.78 142.606 236.871C143.057 235.448 142.969 233.934 142.515 232.425C141.614 232.869 141.343 234.115 141.885 234.917" fill="#003049"/>
</svg>
